<svg xmlns="http://www.w3.org/2000/svg" viewBox="0 0 564.31 783.93"><defs><style>.cls-1{fill:none;stroke:#ed7b00;stroke-miterlimit:10;stroke-width:32.36px;}.cls-2{fill:#ed7b00;}.cls-3{font-size:71.53px;font-family:TrajanPro3-Regular, "Trajan Pro 3";}.cls-3,.cls-8{fill:#282828;}.cls-4{letter-spacing:-0.01em;}.cls-5{letter-spacing:-0.04em;}.cls-6{letter-spacing:-0.02em;}.cls-7{letter-spacing:0em;}.cls-8{font-size:137.32px;font-family:TrajanPro3-Semibold, "Trajan Pro 3";font-weight:600;}.cls-9{letter-spacing:-0.02em;}.cls-10{letter-spacing:-0.01em;}.cls-11{letter-spacing:-0.01em;}.cls-12{letter-spacing:0.01em;}.cls-13{letter-spacing:0em;}</style></defs><g id="Layer_2" data-name="Layer 2"><g id="Lager_1" data-name="Lager 1"><ellipse class="cls-1" cx="282.15" cy="283.02" rx="129.64" ry="131.38"/><path class="cls-2" d="M564.31,267S518,305.44,471.55,288.1c-33.95-12.66-51.73,23.16-51.73,23.16S406.6,301,416.1,273s54.1-22.89,82.86-7.22,64.93,2.11,64.93,2.11"/><path class="cls-2" d="M0,297.28s46.28-38.41,92.76-21.08c33.95,12.67,51.73-23.15,51.73-23.15s13.21,10.28,3.72,38.23-54.11,22.89-82.86,7.21S.42,296.39.42,296.39"/><path class="cls-2" d="M266.18,0s38.41,46.28,21.07,92.76c-12.67,33.95,23.15,51.73,23.15,51.73s-10.28,13.21-38.23,3.72S249.28,94.1,265,65.35,267.07.42,267.07.42"/><path class="cls-2" d="M296.42,564.31S258,518,275.35,471.55C288,437.6,252.2,419.82,252.2,419.82s10.28-13.22,38.23-3.72,22.88,54.1,7.21,82.86-2.11,64.93-2.11,64.93"/><path class="cls-2" d="M492.28,471s-59.88-5.56-80.49-50.68c-15.05-33-53-20.21-53-20.21s-2.07-16.62,24.4-29.67,54.44,22.08,63.69,53.5,44.42,47.39,44.42,47.39"/><path class="cls-2" d="M71.87,93.33S131.75,98.9,152.36,144c15,33,52.95,20.21,52.95,20.21s2.07,16.62-24.41,29.66-54.44-22.07-63.69-53.49S72.8,93,72.8,93"/><path class="cls-2" d="M470.29,71.34s-5.57,59.89-50.69,80.49c-33,15-20.21,52.95-20.21,52.95s-16.61,2.08-29.66-24.4,22.07-54.44,53.49-63.69,47.4-44.42,47.4-44.42"/><path class="cls-2" d="M92.65,491.76s5.57-59.89,50.69-80.49c33-15,20.2-52.95,20.2-52.95s16.62-2.08,29.67,24.4-22.07,54.44-53.49,63.69-47.4,44.42-47.4,44.42"/><path class="cls-2" d="M552.17,365.14S495.5,385.26,457.84,353c-27.52-23.58-56.55,3.92-56.55,3.92s-8.86-14.2,9.68-37.17,58.68-2.85,80.27,21.77,60.23,24.34,60.23,24.34"/><path class="cls-2" d="M12,199.17s56.67-20.12,94.33,12.17c27.52,23.58,56.54-3.92,56.54-3.92s8.87,14.2-9.67,37.17S94.5,247.44,72.9,222.82s-60.22-24.34-60.22-24.34"/><path class="cls-2" d="M364.26,11.76s20.11,56.68-12.17,94.34C328.5,133.61,356,162.64,356,162.64s-14.21,8.87-37.17-9.68S316,94.29,340.6,72.69s24.34-60.23,24.34-60.23"/><path class="cls-2" d="M198.29,552s-20.12-56.68,12.16-94.34c23.59-27.51-3.92-56.54-3.92-56.54s14.21-8.87,37.18,9.68,2.85,58.67-21.77,80.27-24.34,60.23-24.34,60.23"/><path class="cls-2" d="M414.31,531.79S360,505.94,356.2,456.48c-2.77-36.13-42.75-37.2-42.75-37.2s3.78-16.32,33.13-19.45S390.09,439.3,388,472s25.38,59.79,25.38,59.79"/><path class="cls-2" d="M149.69,32.46s54.3,25.85,58.1,75.31C210.57,143.9,250.55,145,250.55,145s-3.78,16.31-33.13,19.44S173.91,125,176.05,92.27s-25.38-59.8-25.38-59.8"/><path class="cls-2" d="M531.31,149s-25.85,54.3-75.31,58.11c-36.14,2.77-37.21,42.75-37.21,42.75s-16.32-3.78-19.45-33.13,39.48-43.51,72.16-41.37S531.3,150,531.3,150"/><path class="cls-2" d="M32,413.66s25.85-54.3,75.31-58.1c36.14-2.78,37.21-42.76,37.21-42.76s16.31,3.78,19.44,33.13-39.47,43.51-72.15,41.37S32,412.68,32,412.68"/><text class="cls-3" transform="translate(66.42 754.54)">s<tspan class="cls-4" x="36.62" y="0">c</tspan><tspan x="86.69" y="0">entjä</tspan><tspan class="cls-5" x="299.91" y="0">n</tspan><tspan class="cls-6" x="356.92" y="0">s</tspan><tspan class="cls-7" x="392.33" y="0">t</tspan></text><text class="cls-8" transform="translate(29.97 684.84)">h<tspan class="cls-9" x="118.51" y="0">é</tspan><tspan class="cls-10" x="193.9" y="0">l</tspan><tspan class="cls-11" x="268.19" y="0">i</tspan><tspan class="cls-12" x="322.7" y="0">o</tspan><tspan class="cls-13" x="436.82" y="0">s</tspan></text></g></g></svg>